<svg xmlns="http://www.w3.org/2000/svg" xml:lang="en" height="913.0138540615475pt" width="785.2984944604132pt" viewBox="-34.408 -344.14518628897656 785.2984944604132 913.0138540615475"><path d="M 288.0,-180.0 L 288.0,36.0 L 396.0,36.0 L 396.0,-180.0 L 288.0,-180.0" style="stroke:black;fill:none;stroke-width:2;stroke-dasharray:-;stroke-linecap:round;stroke-linejoin:round;" /><text x="345.59999999999997" y="-89.60000000000001" dominant-baseline="central" fill="black" font-size="14" font-family="sans" text-anchor="middle"><tspan x="345.59999999999997" dy="14">ESP32</tspan></text><path d="M 601.1999999999999,-99.0 L 601.1999999999999,-45.0 L 709.1999999999999,-45.0 L 709.1999999999999,-99.0 L 601.1999999999999,-99.0" style="stroke:black;fill:none;stroke-width:1;stroke-dasharray:-;stroke-linecap:round;stroke-linejoin:round;" /><text x="658.8000000000001" y="-87.6" dominant-baseline="central" fill="black" font-size="12" font-family="sans" text-anchor="middle"><tspan x="658.8000000000001" dy="12">Joystick</tspan></text><path d="M 567.6199533674753,-291.2461179749811 L 591.7694875244731,-242.9470496609856 L 688.367624152464,-291.2461179749811 L 664.2180899954662,-339.54518628897654 L 567.6199533674753,-291.2461179749811" style="stroke:black;fill:none;stroke-width:1;stroke-dasharray:-;stroke-linecap:round;stroke-linejoin:round;" /><text x="629.6037577037696" y="-308.0760248063806" dominant-baseline="central" fill="black" font-size="12" font-family="sans" text-anchor="middle"><tspan x="629.6037577037696" dy="12">Encoder</tspan></text><path d="M 632.9877487076207,-9.055046387937427 L 638.9510511156623,44.614675284437986 L 746.2904944604131,32.68807046835455 L 740.3271920523715,-20.98165120402086 L 632.9877487076207,-9.055046387937427" style="stroke:black;fill:none;stroke-width:1;stroke-dasharray:-;stroke-linecap:round;stroke-linejoin:round;" /><text x="692.8195495349725" y="-4.159022898485914" dominant-baseline="central" fill="black" font-size="12" font-family="sans" text-anchor="middle"><tspan x="692.8195495349725" dy="12">PIR Sensor</tspan></text><path d="M 358.4191685432842,444.4534253879214 L 313.4884526490406,474.40723598408374 L 373.39607384136536,564.2686677725709 L 418.32678973560894,534.3148571764086 L 358.4191685432842,444.4534253879214" style="stroke:black;fill:none;stroke-width:1;stroke-dasharray:-;stroke-linecap:round;stroke-linejoin:round;" /><text x="370.8999229583518" y="493.3595069334516" dominant-baseline="central" fill="black" font-size="12" font-family="sans" text-anchor="middle"><tspan x="370.8999229583518" dy="12">NeoPixel</tspan></text><path d="M 0.0,-144.0 L 72.0,-144.0 L 144.0,-144.0" style="stroke:black;fill:none;stroke-width:2.0;stroke-dasharray:-;stroke-linecap:round;stroke-linejoin:round;" /><path d="M 0.0,-72.0 L 72.0,-72.0 L 144.0,-72.0" style="stroke:black;fill:none;stroke-width:2.0;stroke-dasharray:-;stroke-linecap:round;stroke-linejoin:round;" /><path d="M 0.0,-0.0 L 72.0,-0.0 L 144.0,-0.0" style="stroke:black;fill:none;stroke-width:2.0;stroke-dasharray:-;stroke-linecap:round;stroke-linejoin:round;" /><path d="M 144.0,-144.0 L 153.0,-144.0 L 162.0,-144.0" style="stroke:black;fill:none;stroke-width:2.0;stroke-dasharray:-;stroke-linecap:round;stroke-linejoin:round;" /><path d="M 169.20000000000002,-144.0" style="stroke:black;fill:none;stroke-width:2.0;stroke-dasharray:-;stroke-linecap:round;stroke-linejoin:round;" /><path d="M 144.0,-72.0 L 153.0,-72.0 L 162.0,-72.0" style="stroke:black;fill:none;stroke-width:2.0;stroke-dasharray:-;stroke-linecap:round;stroke-linejoin:round;" /><path d="M 169.20000000000002,-72.0" style="stroke:black;fill:none;stroke-width:2.0;stroke-dasharray:-;stroke-linecap:round;stroke-linejoin:round;" /><path d="M 144.0,-0.0 L 153.0,-0.0 L 162.0,-0.0" style="stroke:black;fill:none;stroke-width:2.0;stroke-dasharray:-;stroke-linecap:round;stroke-linejoin:round;" /><path d="M 169.20000000000002,-0.0" style="stroke:black;fill:none;stroke-width:2.0;stroke-dasharray:-;stroke-linecap:round;stroke-linejoin:round;" /><path d="M 252.0,-144.0 L 261.0,-144.0 L 270.0,-144.0" style="stroke:black;fill:none;stroke-width:2.0;stroke-dasharray:-;stroke-linecap:round;stroke-linejoin:round;" /><path d="M 277.2,-144.0" style="stroke:black;fill:none;stroke-width:2.0;stroke-dasharray:-;stroke-linecap:round;stroke-linejoin:round;" /><path d="M 252.0,-108.0 L 261.0,-108.0 L 270.0,-108.0" style="stroke:black;fill:none;stroke-width:2.0;stroke-dasharray:-;stroke-linecap:round;stroke-linejoin:round;" /><path d="M 277.2,-108.0" style="stroke:black;fill:none;stroke-width:2.0;stroke-dasharray:-;stroke-linecap:round;stroke-linejoin:round;" /><path d="M 252.0,-72.0 L 261.0,-72.0 L 270.0,-72.0" style="stroke:black;fill:none;stroke-width:2.0;stroke-dasharray:-;stroke-linecap:round;stroke-linejoin:round;" /><path d="M 277.2,-72.0" style="stroke:black;fill:none;stroke-width:2.0;stroke-dasharray:-;stroke-linecap:round;stroke-linejoin:round;" /><path d="M 252.0,-36.0 L 261.0,-36.0 L 270.0,-36.0" style="stroke:black;fill:none;stroke-width:2.0;stroke-dasharray:-;stroke-linecap:round;stroke-linejoin:round;" /><path d="M 277.2,-36.0" style="stroke:black;fill:none;stroke-width:2.0;stroke-dasharray:-;stroke-linecap:round;stroke-linejoin:round;" /><path d="M 252.0,-0.0 L 261.0,-0.0 L 270.0,-0.0" style="stroke:black;fill:none;stroke-width:2.0;stroke-dasharray:-;stroke-linecap:round;stroke-linejoin:round;" /><path d="M 277.2,-0.0" style="stroke:black;fill:none;stroke-width:2.0;stroke-dasharray:-;stroke-linecap:round;stroke-linejoin:round;" /><path d="M 252.0,36.0 L 261.0,36.0 L 270.0,36.0" style="stroke:black;fill:none;stroke-width:2.0;stroke-dasharray:-;stroke-linecap:round;stroke-linejoin:round;" /><path d="M 277.2,36.0" style="stroke:black;fill:none;stroke-width:2.0;stroke-dasharray:-;stroke-linecap:round;stroke-linejoin:round;" /><path d="M 252.0,72.0 L 261.0,72.0 L 270.0,72.0" style="stroke:black;fill:none;stroke-width:2.0;stroke-dasharray:-;stroke-linecap:round;stroke-linejoin:round;" /><path d="M 277.2,72.0" style="stroke:black;fill:none;stroke-width:2.0;stroke-dasharray:-;stroke-linecap:round;stroke-linejoin:round;" /><path d="M 324.0,-162.0 L 315.0,-162.0 L 306.0,-162.0" style="stroke:black;fill:none;stroke-width:2.0;stroke-dasharray:-;stroke-linecap:round;stroke-linejoin:round;" /><path d="M 288.0,-162.0" style="stroke:black;fill:none;stroke-width:2.0;stroke-dasharray:-;stroke-linecap:round;stroke-linejoin:round;" /><path d="M 144.0,-144.0 L 225.0,-153.0 L 306.0,-162.0" style="stroke:black;fill:none;stroke-width:2.0;stroke-dasharray:-;stroke-linecap:round;stroke-linejoin:round;" /><path d="M 324.0,-144.0 L 315.0,-144.0 L 306.0,-144.0" style="stroke:black;fill:none;stroke-width:2.0;stroke-dasharray:-;stroke-linecap:round;stroke-linejoin:round;" /><path d="M 288.0,-144.0" style="stroke:black;fill:none;stroke-width:2.0;stroke-dasharray:-;stroke-linecap:round;stroke-linejoin:round;" /><path d="M 144.0,-0.0 L 225.0,-72.0 L 306.0,-144.0" style="stroke:black;fill:none;stroke-width:2.0;stroke-dasharray:-;stroke-linecap:round;stroke-linejoin:round;" /><path d="M 324.0,-126.0 L 315.0,-126.0 L 306.0,-126.0" style="stroke:black;fill:none;stroke-width:2.0;stroke-dasharray:-;stroke-linecap:round;stroke-linejoin:round;" /><path d="M 288.0,-126.0" style="stroke:black;fill:none;stroke-width:2.0;stroke-dasharray:-;stroke-linecap:round;stroke-linejoin:round;" /><path d="M 270.0,-144.0 L 288.0,-135.0 L 306.0,-126.0" style="stroke:black;fill:none;stroke-width:2.0;stroke-dasharray:-;stroke-linecap:round;stroke-linejoin:round;" /><path d="M 324.0,-108.0 L 315.0,-108.0 L 306.0,-108.0" style="stroke:black;fill:none;stroke-width:2.0;stroke-dasharray:-;stroke-linecap:round;stroke-linejoin:round;" /><path d="M 288.0,-108.0" style="stroke:black;fill:none;stroke-width:2.0;stroke-dasharray:-;stroke-linecap:round;stroke-linejoin:round;" /><path d="M 270.0,-108.0 L 288.0,-108.0 L 306.0,-108.0" style="stroke:black;fill:none;stroke-width:2.0;stroke-dasharray:-;stroke-linecap:round;stroke-linejoin:round;" /><path d="M 324.0,-90.0 L 315.0,-90.0 L 306.0,-90.0" style="stroke:black;fill:none;stroke-width:2.0;stroke-dasharray:-;stroke-linecap:round;stroke-linejoin:round;" /><path d="M 288.0,-90.0" style="stroke:black;fill:none;stroke-width:2.0;stroke-dasharray:-;stroke-linecap:round;stroke-linejoin:round;" /><path d="M 270.0,-72.0 L 288.0,-81.0 L 306.0,-90.0" style="stroke:black;fill:none;stroke-width:2.0;stroke-dasharray:-;stroke-linecap:round;stroke-linejoin:round;" /><path d="M 324.0,-54.0 L 315.0,-54.0 L 306.0,-54.0" style="stroke:black;fill:none;stroke-width:2.0;stroke-dasharray:-;stroke-linecap:round;stroke-linejoin:round;" /><path d="M 288.0,-54.0" style="stroke:black;fill:none;stroke-width:2.0;stroke-dasharray:-;stroke-linecap:round;stroke-linejoin:round;" /><path d="M 270.0,-36.0 L 288.0,-45.0 L 306.0,-54.0" style="stroke:black;fill:none;stroke-width:2.0;stroke-dasharray:-;stroke-linecap:round;stroke-linejoin:round;" /><path d="M 324.0,-36.0 L 315.0,-36.0 L 306.0,-36.0" style="stroke:black;fill:none;stroke-width:2.0;stroke-dasharray:-;stroke-linecap:round;stroke-linejoin:round;" /><path d="M 288.0,-36.0" style="stroke:black;fill:none;stroke-width:2.0;stroke-dasharray:-;stroke-linecap:round;stroke-linejoin:round;" /><path d="M 270.0,-0.0 L 288.0,-18.0 L 306.0,-36.0" style="stroke:black;fill:none;stroke-width:2.0;stroke-dasharray:-;stroke-linecap:round;stroke-linejoin:round;" /><path d="M 324.0,-18.0 L 315.0,-18.0 L 306.0,-18.000000000000004" style="stroke:black;fill:none;stroke-width:2.0;stroke-dasharray:-;stroke-linecap:round;stroke-linejoin:round;" /><path d="M 288.0,-18.0" style="stroke:black;fill:none;stroke-width:2.0;stroke-dasharray:-;stroke-linecap:round;stroke-linejoin:round;" /><path d="M 144.0,-0.0 L 225.0,-9.0 L 306.0,-18.0" style="stroke:black;fill:none;stroke-width:2.0;stroke-dasharray:-;stroke-linecap:round;stroke-linejoin:round;" /><path d="M 324.0,54.0 L 315.0,54.0 L 306.0,54.0" style="stroke:black;fill:none;stroke-width:2.0;stroke-dasharray:-;stroke-linecap:round;stroke-linejoin:round;" /><path d="M 288.0,54.0" style="stroke:black;fill:none;stroke-width:2.0;stroke-dasharray:-;stroke-linecap:round;stroke-linejoin:round;" /><path d="M 144.0,-72.0 L 225.0,-9.0 L 306.0,54.0" style="stroke:black;fill:none;stroke-width:2.0;stroke-dasharray:-;stroke-linecap:round;stroke-linejoin:round;" /><path d="M 324.0,72.0 L 315.0,72.0 L 306.0,72.0" style="stroke:black;fill:none;stroke-width:2.0;stroke-dasharray:-;stroke-linecap:round;stroke-linejoin:round;" /><path d="M 288.0,72.0" style="stroke:black;fill:none;stroke-width:2.0;stroke-dasharray:-;stroke-linecap:round;stroke-linejoin:round;" /><path d="M 144.0,-0.0 L 225.0,35.99999999999999 L 306.0,71.99999999999999" style="stroke:black;fill:none;stroke-width:2.0;stroke-dasharray:-;stroke-linecap:round;stroke-linejoin:round;" /><path d="M 324.0,90.0 L 315.0,90.0 L 306.0,90.0" style="stroke:black;fill:none;stroke-width:2.0;stroke-dasharray:-;stroke-linecap:round;stroke-linejoin:round;" /><path d="M 288.0,90.0" style="stroke:black;fill:none;stroke-width:2.0;stroke-dasharray:-;stroke-linecap:round;stroke-linejoin:round;" /><path d="M 270.0,36.0 L 288.0,63.0 L 306.0,90.0" style="stroke:black;fill:none;stroke-width:2.0;stroke-dasharray:-;stroke-linecap:round;stroke-linejoin:round;" /><path d="M 324.0,162.0 L 315.0,162.0 L 306.0,162.0" style="stroke:black;fill:none;stroke-width:2.0;stroke-dasharray:-;stroke-linecap:round;stroke-linejoin:round;" /><path d="M 288.0,162.0" style="stroke:black;fill:none;stroke-width:2.0;stroke-dasharray:-;stroke-linecap:round;stroke-linejoin:round;" /><path d="M 144.0,-72.0 L 225.0,45.0 L 306.0,162.0" style="stroke:black;fill:none;stroke-width:2.0;stroke-dasharray:-;stroke-linecap:round;stroke-linejoin:round;" /><path d="M 324.0,180.0 L 315.0,180.0 L 306.0,180.0" style="stroke:black;fill:none;stroke-width:2.0;stroke-dasharray:-;stroke-linecap:round;stroke-linejoin:round;" /><path d="M 288.0,180.0" style="stroke:black;fill:none;stroke-width:2.0;stroke-dasharray:-;stroke-linecap:round;stroke-linejoin:round;" /><path d="M 144.0,-0.0 L 225.0,90.0 L 306.0,180.0" style="stroke:black;fill:none;stroke-width:2.0;stroke-dasharray:-;stroke-linecap:round;stroke-linejoin:round;" /><path d="M 324.0,198.0 L 315.0,198.0 L 306.0,198.0" style="stroke:black;fill:none;stroke-width:2.0;stroke-dasharray:-;stroke-linecap:round;stroke-linejoin:round;" /><path d="M 288.0,198.0" style="stroke:black;fill:none;stroke-width:2.0;stroke-dasharray:-;stroke-linecap:round;stroke-linejoin:round;" /><path d="M 270.0,72.0 L 288.0,135.0 L 306.0,198.0" style="stroke:black;fill:none;stroke-width:2.0;stroke-dasharray:-;stroke-linecap:round;stroke-linejoin:round;" /><text x="-3.600000000000003" y="-156.0" dominant-baseline="central" fill="black" font-size="12" font-family="sans" text-anchor="end"><tspan x="-3.600000000000003" dy="12">3.3V</tspan></text><text x="-3.600000000000003" y="-84.0" dominant-baseline="central" fill="black" font-size="12" font-family="sans" text-anchor="end"><tspan x="-3.600000000000003" dy="12">5V</tspan></text><text x="-3.600000000000003" y="-12.0" dominant-baseline="central" fill="black" font-size="12" font-family="sans" text-anchor="end"><tspan x="-3.600000000000003" dy="12">GND</tspan></text><text x="165.60000000000002" y="-154.0" dominant-baseline="central" fill="black" font-size="10" font-family="sans" text-anchor="end"><tspan x="165.60000000000002" dy="10">3V3</tspan></text><text x="165.60000000000002" y="-82.0" dominant-baseline="central" fill="black" font-size="10" font-family="sans" text-anchor="end"><tspan x="165.60000000000002" dy="10">5V</tspan></text><text x="165.60000000000002" y="-10.0" dominant-baseline="central" fill="black" font-size="10" font-family="sans" text-anchor="end"><tspan x="165.60000000000002" dy="10">GND</tspan></text><text x="273.6" y="-154.0" dominant-baseline="central" fill="black" font-size="10" font-family="sans" text-anchor="end"><tspan x="273.6" dy="10">IO34</tspan></text><text x="273.6" y="-118.0" dominant-baseline="central" fill="black" font-size="10" font-family="sans" text-anchor="end"><tspan x="273.6" dy="10">IO35</tspan></text><text x="273.6" y="-82.0" dominant-baseline="central" fill="black" font-size="10" font-family="sans" text-anchor="end"><tspan x="273.6" dy="10">IO21</tspan></text><text x="273.6" y="-46.0" dominant-baseline="central" fill="black" font-size="10" font-family="sans" text-anchor="end"><tspan x="273.6" dy="10">IO18</tspan></text><text x="273.6" y="-10.0" dominant-baseline="central" fill="black" font-size="10" font-family="sans" text-anchor="end"><tspan x="273.6" dy="10">IO19</tspan></text><text x="273.6" y="26.0" dominant-baseline="central" fill="black" font-size="10" font-family="sans" text-anchor="end"><tspan x="273.6" dy="10">IO27</tspan></text><text x="273.6" y="62.0" dominant-baseline="central" fill="black" font-size="10" font-family="sans" text-anchor="end"><tspan x="273.6" dy="10">IO25</tspan></text><text x="291.59999999999997" y="-171.0" dominant-baseline="central" fill="black" font-size="9" font-family="sans" text-anchor="start"><tspan x="291.59999999999997" dy="9">VCC</tspan></text><text x="291.59999999999997" y="-153.0" dominant-baseline="central" fill="black" font-size="9" font-family="sans" text-anchor="start"><tspan x="291.59999999999997" dy="9">GND</tspan></text><text x="291.59999999999997" y="-135.0" dominant-baseline="central" fill="black" font-size="9" font-family="sans" text-anchor="start"><tspan x="291.59999999999997" dy="9">VRX</tspan></text><text x="291.59999999999997" y="-117.0" dominant-baseline="central" fill="black" font-size="9" font-family="sans" text-anchor="start"><tspan x="291.59999999999997" dy="9">VRY</tspan></text><text x="291.59999999999997" y="-99.0" dominant-baseline="central" fill="black" font-size="9" font-family="sans" text-anchor="start"><tspan x="291.59999999999997" dy="9">SW</tspan></text><text x="291.59999999999997" y="-63.0" dominant-baseline="central" fill="black" font-size="9" font-family="sans" text-anchor="start"><tspan x="291.59999999999997" dy="9">A</tspan></text><text x="291.59999999999997" y="-45.0" dominant-baseline="central" fill="black" font-size="9" font-family="sans" text-anchor="start"><tspan x="291.59999999999997" dy="9">B</tspan></text><text x="291.59999999999997" y="-27.0" dominant-baseline="central" fill="black" font-size="9" font-family="sans" text-anchor="start"><tspan x="291.59999999999997" dy="9">C</tspan></text><text x="291.59999999999997" y="45.0" dominant-baseline="central" fill="black" font-size="9" font-family="sans" text-anchor="start"><tspan x="291.59999999999997" dy="9">VCC</tspan></text><text x="291.59999999999997" y="63.0" dominant-baseline="central" fill="black" font-size="9" font-family="sans" text-anchor="start"><tspan x="291.59999999999997" dy="9">GND</tspan></text><text x="291.59999999999997" y="81.0" dominant-baseline="central" fill="black" font-size="9" font-family="sans" text-anchor="start"><tspan x="291.59999999999997" dy="9">OUT</tspan></text><text x="291.59999999999997" y="153.0" dominant-baseline="central" fill="black" font-size="9" font-family="sans" text-anchor="start"><tspan x="291.59999999999997" dy="9">VCC</tspan></text><text x="291.59999999999997" y="171.0" dominant-baseline="central" fill="black" font-size="9" font-family="sans" text-anchor="start"><tspan x="291.59999999999997" dy="9">GND</tspan></text><text x="291.59999999999997" y="189.0" dominant-baseline="central" fill="black" font-size="9" font-family="sans" text-anchor="start"><tspan x="291.59999999999997" dy="9">DIN</tspan></text></svg>